<?xml version="1.0" standalone="no"?>
<!DOCTYPE svg PUBLIC "-//W3C//DTD SVG 20010904//EN"
 "http://www.w3.org/TR/2001/REC-SVG-20010904/DTD/svg10.dtd">
<svg version="1.0" xmlns="http://www.w3.org/2000/svg"
 width="690.000000pt" height="690.000000pt" viewBox="0 0 690.000000 690.000000"
 preserveAspectRatio="xMidYMid meet">
<metadata>
Created by potrace 1.11, written by Peter Selinger 2001-2013
</metadata>
<g transform="translate(0.000000,690.000000) scale(0.100000,-0.100000)"
fill="#000000" stroke="none">
<path d="M3268 6896 c-1 -2 -46 -6 -98 -10 -52 -3 -106 -8 -120 -10 -14 -3
-46 -7 -72 -10 -87 -11 -262 -46 -363 -71 -55 -14 -111 -28 -123 -31 -40 -8
-206 -64 -224 -74 -10 -6 -25 -10 -33 -10 -8 0 -15 -5 -15 -11 0 -5 -4 -8 -8
-5 -5 3 -21 -2 -36 -10 -16 -7 -33 -14 -38 -14 -26 0 -387 -184 -381 -194 3
-6 3 -8 -2 -4 -9 8 -85 -31 -85 -44 0 -4 -3 -7 -7 -6 -13 3 -63 -24 -63 -34 0
-4 -5 -8 -11 -8 -16 0 -239 -160 -239 -171 0 -5 -3 -8 -8 -7 -4 2 -14 -3 -22
-9 -8 -7 -49 -40 -90 -74 -145 -119 -318 -293 -436 -440 -109 -135 -129 -161
-133 -173 -2 -6 -7 -13 -10 -16 -21 -17 -50 -64 -44 -74 3 -6 3 -8 -2 -4 -7 7
-75 -81 -75 -96 0 -3 -12 -22 -26 -43 -14 -21 -30 -47 -35 -58 -5 -11 -19 -36
-31 -55 -63 -104 -202 -406 -193 -421 3 -4 1 -9 -3 -11 -15 -5 -96 -238 -83
-238 3 0 0 -4 -6 -8 -7 -4 -14 -21 -17 -38 -2 -16 -6 -36 -9 -44 -14 -38 -28
-88 -26 -96 1 -5 0 -16 -3 -24 -9 -23 -28 -102 -33 -135 -2 -16 -9 -52 -14
-78 -6 -27 -10 -51 -10 -55 1 -4 0 -9 -1 -12 -1 -3 -3 -16 -5 -30 -6 -60 -17
-147 -22 -175 -8 -54 -10 -518 -2 -590 4 -38 10 -98 14 -132 3 -34 8 -72 10
-85 3 -13 7 -39 10 -58 5 -37 9 -56 25 -135 18 -88 21 -98 46 -195 14 -52 27
-99 28 -105 11 -46 42 -131 48 -133 5 -2 6 -8 3 -13 -3 -5 0 -19 7 -31 6 -13
13 -27 14 -33 21 -100 277 -615 306 -615 6 0 8 -3 5 -6 -8 -8 24 -64 35 -64 4
0 8 -5 8 -11 0 -16 46 -80 53 -74 4 3 5 2 2 -1 -11 -15 203 -286 219 -277 6 3
8 3 4 -2 -9 -10 42 -76 53 -69 5 3 8 1 7 -4 -6 -19 191 -212 343 -338 127
-104 161 -130 167 -126 3 2 9 -3 14 -12 5 -9 15 -16 22 -16 8 0 16 -7 20 -15
3 -8 12 -15 21 -15 8 0 15 -4 15 -8 0 -9 50 -40 64 -40 5 0 12 -5 15 -11 8
-12 119 -81 131 -81 4 0 13 -7 20 -15 7 -8 16 -12 21 -9 5 3 9 1 9 -3 0 -5 69
-42 153 -82 83 -41 164 -80 180 -88 15 -8 27 -11 27 -7 0 3 6 2 13 -4 20 -17
258 -102 268 -96 5 3 9 1 9 -3 0 -5 33 -18 73 -28 39 -11 77 -20 82 -22 47
-13 196 -45 220 -48 17 -1 37 -5 45 -8 13 -5 93 -17 215 -33 148 -19 507 -25
675 -11 114 9 288 31 340 43 14 3 57 12 95 20 102 20 291 70 345 91 20 8 21 9
55 18 17 4 39 13 50 19 11 5 22 11 25 11 34 6 243 95 251 107 3 5 8 9 10 8 10
-4 59 13 59 21 0 5 9 9 19 9 11 0 21 3 23 8 2 4 32 22 68 40 36 18 86 45 111
60 25 15 64 38 87 51 23 13 38 29 35 34 -3 6 -2 7 4 4 12 -8 103 48 103 63 0
5 3 9 8 8 15 -3 42 15 35 25 -3 6 -1 7 5 3 6 -4 20 2 32 14 11 11 20 17 20 13
0 -5 6 -1 13 7 7 8 37 34 68 57 31 23 62 47 70 55 8 7 32 28 54 47 93 79 281
270 355 361 25 30 50 60 56 65 6 6 26 30 45 55 18 25 37 46 41 48 5 2 8 10 8
17 0 7 4 15 9 17 14 5 160 226 153 232 -3 3 0 6 6 6 11 0 28 38 24 53 -1 5 1
6 6 3 4 -2 17 12 27 32 11 20 34 63 51 94 18 31 30 59 26 62 -3 3 -1 6 5 6 10
0 24 30 27 55 1 6 4 12 7 15 13 11 78 163 73 171 -3 5 -1 9 4 9 6 0 19 26 30
58 71 200 77 219 112 340 12 41 19 76 16 80 -3 3 -2 10 3 16 8 9 22 66 35 141
9 53 17 92 21 115 3 14 8 43 10 65 3 22 9 72 14 110 4 39 8 87 7 108 0 20 2
37 5 37 7 0 3 463 -5 540 -10 103 -24 202 -33 245 -2 11 -6 31 -7 45 -7 53
-18 107 -32 160 -8 30 -16 64 -18 75 -14 85 -140 457 -157 463 -5 2 -7 7 -4
12 7 11 -101 241 -109 233 -4 -4 -4 0 0 10 3 10 1 17 -5 17 -6 0 -10 3 -10 8
3 18 -2 33 -9 28 -5 -3 -9 1 -9 8 0 23 -97 185 -108 179 -5 -4 -7 -3 -3 2 4 4
-2 24 -14 44 -23 38 -158 232 -167 241 -4 3 -26 31 -50 63 -24 31 -48 57 -53
57 -5 0 -6 5 -3 10 3 6 -1 10 -9 10 -9 0 -15 4 -14 9 4 11 -115 143 -221 245
-46 45 -91 89 -100 99 -8 9 -18 17 -22 17 -3 0 -27 20 -53 45 -27 25 -53 42
-60 38 -6 -3 -8 -3 -4 2 4 4 -11 22 -35 39 -23 17 -44 33 -47 36 -20 21 -153
110 -166 110 -8 0 -13 4 -10 9 3 4 -52 42 -122 84 -134 79 -392 212 -392 201
0 -4 -6 -2 -13 4 -24 20 -296 123 -392 148 -150 40 -205 54 -230 58 -16 3 -59
12 -95 20 -36 8 -84 17 -107 20 -22 3 -52 7 -65 10 -12 3 -50 8 -83 11 -33 3
-73 7 -90 10 -33 6 -491 15 -497 11z"/>
</g>
</svg>
